<svg width="24" height="25" viewBox="0 0 24 25" fill="none" xmlns="http://www.w3.org/2000/svg">
<path d="M11.2893 13.385V16.7492C11.2893 16.9719 11.3642 17.1586 11.5138 17.3092C11.6637 17.4598 11.8523 17.535 12.0796 17.535C12.3068 17.535 12.4938 17.4606 12.6406 17.3117C12.7874 17.1627 12.8608 16.9747 12.8608 16.7477V13.385H16.2501C16.4728 13.385 16.6594 13.3102 16.8101 13.1605C16.9606 13.0107 17.0358 12.8221 17.0358 12.5947C17.0358 12.3676 16.9614 12.1806 16.8126 12.0337C16.6636 11.8869 16.4756 11.8135 16.2486 11.8135H12.8608V8.24925C12.8608 8.02658 12.786 7.83992 12.6363 7.68925C12.4865 7.53875 12.2979 7.4635 12.0706 7.4635C11.8434 7.4635 11.6564 7.53792 11.5096 7.68675C11.3628 7.83575 11.2893 8.02375 11.2893 8.25075V11.8135H7.75009C7.52742 11.8135 7.34075 11.8883 7.19009 12.038C7.03959 12.1878 6.96434 12.3764 6.96434 12.6037C6.96434 12.8309 7.03875 13.0179 7.18759 13.1647C7.33659 13.3116 7.52459 13.385 7.75159 13.385H11.2893ZM12.0076 22.6487C10.6043 22.6487 9.28725 22.3831 8.05659 21.8517C6.82592 21.3204 5.74959 20.5938 4.82759 19.6718C3.90559 18.7498 3.17892 17.6731 2.64759 16.4417C2.11625 15.2104 1.85059 13.8923 1.85059 12.4875C1.85059 11.0828 2.11625 9.7645 2.64759 8.5325C3.17892 7.30067 3.90525 6.22783 4.82659 5.314C5.74792 4.4 6.82442 3.6765 8.05609 3.1435C9.28775 2.61033 10.6062 2.34375 12.0113 2.34375C13.4163 2.34375 14.7351 2.61017 15.9676 3.143C17.1999 3.67583 18.2728 4.39892 19.1863 5.31225C20.1 6.22558 20.8233 7.29958 21.3561 8.53425C21.8891 9.76892 22.1556 11.0883 22.1556 12.4925C22.1556 13.8965 21.889 15.2137 21.3558 16.4442C20.8228 17.6749 20.0993 18.7495 19.1853 19.668C18.2715 20.5863 17.1976 21.3127 15.9636 21.8472C14.7296 22.3816 13.4109 22.6487 12.0076 22.6487ZM12.0126 20.9455C14.3549 20.9455 16.3462 20.1226 17.9863 18.4767C19.6263 16.8307 20.4463 14.8341 20.4463 12.4867C20.4463 10.1444 19.6278 8.15317 17.9908 6.513C16.354 4.873 14.3561 4.053 11.9971 4.053C9.66109 4.053 7.66984 4.8715 6.02334 6.5085C4.377 8.14533 3.55384 10.1432 3.55384 12.5022C3.55384 14.8382 4.37675 16.8295 6.02259 18.476C7.66859 20.1223 9.66525 20.9455 12.0126 20.9455Z" fill="black"/>
</svg>
