<svg width="24" height="24" viewBox="0 0 24 24" fill="none" xmlns="http://www.w3.org/2000/svg">
<path d="M11.2884 12.886V16.2502C11.2884 16.4729 11.3632 16.6596 11.5129 16.8102C11.6627 16.9607 11.8513 17.036 12.0786 17.036C12.3058 17.036 12.4928 16.9616 12.6396 16.8127C12.7864 16.6637 12.8599 16.4757 12.8599 16.2487V12.886H16.2491C16.4718 12.886 16.6584 12.8111 16.8091 12.6615C16.9596 12.5116 17.0349 12.3231 17.0349 12.0957C17.0349 11.8686 16.9604 11.6816 16.8116 11.5347C16.6626 11.3879 16.4746 11.3145 16.2476 11.3145H12.8599V7.75023C12.8599 7.52756 12.785 7.34089 12.6354 7.19023C12.4855 7.03973 12.2969 6.96448 12.0696 6.96448C11.8424 6.96448 11.6554 7.03889 11.5086 7.18773C11.3618 7.33673 11.2884 7.52473 11.2884 7.75173V11.3145H7.74911C7.52644 11.3145 7.33978 11.3893 7.18911 11.539C7.03861 11.6888 6.96336 11.8774 6.96336 12.1047C6.96336 12.3319 7.03778 12.5189 7.18661 12.6657C7.33561 12.8126 7.52361 12.886 7.75061 12.886H11.2884ZM12.0066 22.1497C10.6033 22.1497 9.28628 21.8841 8.05561 21.3527C6.82494 20.8214 5.74861 20.0947 4.82661 19.1727C3.90461 18.2507 3.17794 17.1741 2.64661 15.9427C2.11528 14.7114 1.84961 13.3933 1.84961 11.9885C1.84961 10.5838 2.11528 9.26548 2.64661 8.03348C3.17794 6.80164 3.90428 5.72881 4.82561 4.81498C5.74694 3.90098 6.82344 3.17748 8.05511 2.64448C9.28678 2.11131 10.6052 1.84473 12.0104 1.84473C13.4154 1.84473 14.7341 2.11114 15.9666 2.64398C17.1989 3.17681 18.2719 3.89989 19.1854 4.81323C20.099 5.72656 20.8223 6.80056 21.3551 8.03523C21.8881 9.26989 22.1546 10.5893 22.1546 11.9935C22.1546 13.3975 21.888 14.7147 21.3549 15.9452C20.8219 17.1759 20.0984 18.2505 19.1844 19.169C18.2705 20.0873 17.1966 20.8137 15.9626 21.3482C14.7286 21.8826 13.4099 22.1497 12.0066 22.1497ZM12.0116 20.4465C14.3539 20.4465 16.3452 19.6236 17.9854 17.9777C19.6254 16.3317 20.4454 14.3351 20.4454 11.9877C20.4454 9.64539 19.6269 7.65414 17.9899 6.01398C16.353 4.37398 14.3551 3.55398 11.9961 3.55398C9.66011 3.55398 7.66886 4.37248 6.02236 6.00948C4.37603 7.64631 3.55286 9.64423 3.55286 12.0032C3.55286 14.3392 4.37578 16.3305 6.02161 17.977C7.66761 19.6233 9.66428 20.4465 12.0116 20.4465Z" fill="black"/>
</svg>
