<svg width="18" height="18" viewBox="0 0 18 18" fill="none" xmlns="http://www.w3.org/2000/svg">
<path d="M18 8.78976C18 12.9398 15.79 17.9998 9.13 17.9998C4.12461 18.033 0.03852 14.0051 0 8.99976C0.03852 3.99437 4.12461 -0.0335438 9.13 -0.000283776C11.2007 0.00739622 13.2085 0.711886 14.83 1.99972C14.942 2.09125 15.0109 2.22533 15.02 2.36972C15.0206 2.51581 14.963 2.65613 14.86 2.75972C14.209 3.35492 13.5882 3.98237 13 4.63972C12.8289 4.82802 12.5422 4.85408 12.34 4.69972C11.4161 4.016 10.2888 3.6637 9.14 3.69972C6.18528 3.69972 3.79 6.095 3.79 9.04976C3.79 12.0045 6.18528 14.3998 9.14 14.3998C12.14 14.3998 13.41 13.1198 14.07 10.8498H9.5C9.2239 10.8498 9 10.6259 9 10.3498V7.69976C9 7.42356 9.2239 7.19976 9.5 7.19976H17.5C17.7302 7.19826 17.9244 7.37086 17.95 7.59976C17.9871 7.99526 18.0038 8.39246 18 8.78976Z" fill="black"/>
</svg>
