<svg width="24" height="24" viewBox="0 0 24 24" fill="none" xmlns="http://www.w3.org/2000/svg">
<path d="M5.57311 17.5595C6.61911 16.8341 7.65678 16.2776 8.68611 15.89C9.71544 15.5023 10.8206 15.3085 12.0016 15.3085C13.1828 15.3085 14.2932 15.5038 15.3329 15.8945C16.3724 16.2853 17.4114 16.8403 18.4501 17.5595C19.1756 16.6555 19.6895 15.7542 19.9919 14.8557C20.2942 13.9571 20.4454 13.0052 20.4454 12.0002C20.4454 9.60256 19.6372 7.59539 18.0209 5.97873C16.4045 4.36223 14.3976 3.55398 12.0001 3.55398C9.60278 3.55398 7.59553 4.36223 5.97836 5.97873C4.36136 7.59539 3.55286 9.60256 3.55286 12.0002C3.55286 13.0049 3.70728 13.9561 4.01611 14.8537C4.32494 15.7514 4.84394 16.6533 5.57311 17.5595ZM11.9944 12.792C11.0182 12.792 10.1982 12.4583 9.53436 11.791C8.87036 11.1235 8.53836 10.303 8.53836 9.32948C8.53836 8.35598 8.87186 7.53606 9.53886 6.86973C10.206 6.20339 11.0277 5.87023 12.0039 5.87023C12.98 5.87023 13.8 6.20498 14.4639 6.87448C15.1279 7.54381 15.4599 8.36523 15.4599 9.33873C15.4599 10.3124 15.1264 11.1314 14.4594 11.7957C13.7922 12.4599 12.9705 12.792 11.9944 12.792ZM12.0074 22.1497C10.6152 22.1497 9.30211 21.8836 8.06811 21.3515C6.83394 20.8193 5.75511 20.0916 4.83161 19.1682C3.90794 18.2447 3.18003 17.1677 2.64786 15.9372C2.11569 14.7069 1.84961 13.3921 1.84961 11.993C1.84961 10.5985 2.11611 9.28714 2.64911 8.05898C3.18211 6.83064 3.90978 5.75539 4.83211 4.83323C5.75428 3.91089 6.83069 3.18223 8.06136 2.64723C9.29203 2.11223 10.607 1.84473 12.0064 1.84473C13.4009 1.84473 14.7122 2.11223 15.9404 2.64723C17.1687 3.18223 18.2439 3.91089 19.1661 4.83323C20.0884 5.75539 20.8171 6.83106 21.3521 8.06023C21.8871 9.28939 22.1546 10.6 22.1546 11.992C22.1546 13.3841 21.8871 14.6975 21.3521 15.932C20.8171 17.1666 20.0884 18.2451 19.1661 19.1672C18.2439 20.0896 17.1683 20.8172 15.9391 21.3502C14.7099 21.8832 13.3994 22.1497 12.0074 22.1497ZM11.9991 20.4465C12.9038 20.4465 13.7837 20.3171 14.6389 20.0585C15.4939 19.7996 16.3464 19.3429 17.1964 18.6882C16.3424 18.0922 15.4857 17.6409 14.6264 17.3342C13.7669 17.0276 12.8911 16.8742 11.9991 16.8742C11.1071 16.8742 10.2324 17.0276 9.37486 17.3342C8.51753 17.6409 7.66186 18.0922 6.80786 18.6882C7.65786 19.3429 8.50936 19.7996 9.36236 20.0585C10.2155 20.3171 11.0944 20.4465 11.9991 20.4465ZM11.9991 11.2202C12.5533 11.2202 13.0067 11.0451 13.3594 10.6947C13.712 10.3444 13.8884 9.89089 13.8884 9.33423C13.8884 8.77756 13.712 8.32306 13.3594 7.97073C13.0067 7.61823 12.5533 7.44198 11.9991 7.44198C11.4449 7.44198 10.9915 7.61823 10.6389 7.97073C10.2862 8.32306 10.1099 8.77756 10.1099 9.33423C10.1099 9.89089 10.2862 10.3444 10.6389 10.6947C10.9915 11.0451 11.4449 11.2202 11.9991 11.2202Z" fill="black"/>
</svg>
