<svg width="24" height="24" viewBox="0 0 24 24" fill="none" xmlns="http://www.w3.org/2000/svg">
<path d="M5.51111 15.9525C5.74828 15.8008 6.00569 15.6856 6.28336 15.6067C6.56103 15.5277 6.85903 15.4882 7.17736 15.4882H8.01111V3.50623H7.17736C6.70919 3.50623 6.31444 3.66789 5.99311 3.99123C5.67178 4.31456 5.51111 4.71031 5.51111 5.17848V15.9525ZM9.67236 15.4882H18.4931V3.50623H9.67236V15.4882ZM7.17736 22.1497C6.25619 22.1497 5.47128 21.8254 4.82261 21.1767C4.17394 20.5281 3.84961 19.7431 3.84961 18.822V5.17848C3.84961 4.25564 4.17394 3.46931 4.82261 2.81948C5.47128 2.16964 6.25619 1.84473 7.17736 1.84473H18.4454C18.9195 1.84473 19.3229 2.01106 19.6556 2.34373C19.9883 2.67639 20.1546 3.07981 20.1546 3.55398V16.4887C20.1546 16.6517 20.1129 16.7995 20.0296 16.932C19.9463 17.0645 19.8396 17.1576 19.7096 17.2115C19.4048 17.3376 19.1657 17.5431 18.9924 17.828C18.819 18.113 18.7324 18.4417 18.7324 18.8142C18.7324 19.1867 18.8186 19.5144 18.9911 19.7972C19.1636 20.0802 19.402 20.2832 19.7064 20.4062C19.8504 20.4689 19.9611 20.5782 20.0386 20.7342C20.1159 20.8902 20.1546 21.0793 20.1546 21.3015V21.3292C20.1546 21.5561 20.074 21.7495 19.9129 21.9095C19.7519 22.0696 19.5545 22.1497 19.3209 22.1497H7.17736ZM7.16586 20.4882H17.5159C17.3752 20.2512 17.2659 19.9895 17.1879 19.703C17.1099 19.4163 17.0709 19.1229 17.0709 18.8227C17.0709 18.5049 17.1103 18.207 17.1891 17.929C17.2681 17.651 17.3854 17.3912 17.5409 17.1497H7.16761C6.70994 17.1497 6.31944 17.3114 5.99611 17.6347C5.67278 17.9581 5.51111 18.3537 5.51111 18.8217C5.51111 19.2861 5.67278 19.6799 5.99611 20.0032C6.31944 20.3266 6.70936 20.4882 7.16586 20.4882Z" fill="black"/>
</svg>
