<svg width="24" height="24" viewBox="0 0 24 24" fill="none" xmlns="http://www.w3.org/2000/svg">
<path d="M11.999 8.7041C12.0929 8.7041 12.1689 8.73239 12.249 8.8125L17.1924 13.7568C17.2744 13.8388 17.3008 13.9127 17.3008 14C17.3008 14.0872 17.2743 14.1612 17.1924 14.2432C17.1143 14.3212 17.0374 14.3516 16.9365 14.3516C16.8359 14.3515 16.7596 14.321 16.6816 14.2432L16.6807 14.2422L12.3516 9.93848L11.998 9.58691L7.31738 14.2676C7.23964 14.3453 7.17341 14.3672 7.09277 14.3643C6.99851 14.3608 6.91711 14.3292 6.83105 14.2432C6.75294 14.165 6.72266 14.0882 6.72266 13.9873C6.72267 13.8864 6.75294 13.8096 6.83105 13.7314L11.75 8.8125C11.83 8.7325 11.9054 8.70418 11.999 8.7041Z" fill="black" stroke="black"/>
</svg>
