<svg width="24" height="24" viewBox="0 0 24 24" fill="none" xmlns="http://www.w3.org/2000/svg">
<path d="M19.1508 21.1373C18.4236 21.1373 17.7959 20.9212 17.2675 20.4891C16.7394 20.0567 16.4066 19.5389 16.2693 18.9356H11.0758C9.96262 18.9356 9.04086 18.5701 8.31053 17.8393C7.5802 17.1083 7.21503 16.1858 7.21503 15.0718C7.21503 13.9618 7.5802 13.0413 8.31053 12.3103C9.04086 11.5795 9.96262 11.2141 11.0758 11.2141H13.0008C13.6709 11.2141 14.22 10.9999 14.648 10.5716C15.076 10.1434 15.29 9.59406 15.29 8.92355C15.29 8.25306 15.076 7.70414 14.648 7.27681C14.22 6.84931 13.6709 6.63555 13.0008 6.63555H7.73828C7.58028 7.23889 7.24136 7.75672 6.72153 8.18905C6.20153 8.62122 5.57795 8.8373 4.85078 8.8373C4.01528 8.8373 3.30845 8.54822 2.73028 7.97005C2.15228 7.39189 1.86328 6.68505 1.86328 5.84955C1.86328 5.01389 2.15228 4.30705 2.73028 3.72905C3.30845 3.15122 4.01528 2.8623 4.85078 2.8623C5.57795 2.8623 6.20153 3.07839 6.72153 3.51055C7.24136 3.94289 7.58028 4.46072 7.73828 5.06405H13.0008C14.1128 5.06405 15.0343 5.42947 15.7653 6.1603C16.4961 6.8913 16.8615 7.8128 16.8615 8.9248C16.8615 10.0368 16.4961 10.9583 15.7653 11.6893C15.0343 12.4201 14.1128 12.7856 13.0008 12.7856H11.0758C10.4044 12.7856 9.85511 12.9993 9.42778 13.4268C9.00028 13.8541 8.78653 14.4025 8.78653 15.0718C8.78653 15.7451 9.00028 16.2955 9.42778 16.7228C9.85511 17.1503 10.4044 17.3641 11.0758 17.3641H16.2693C16.4233 16.7607 16.7602 16.2429 17.28 15.8106C17.8 15.3784 18.4236 15.1623 19.1508 15.1623C19.9863 15.1623 20.6931 15.4514 21.2713 16.0296C21.8493 16.6077 22.1383 17.3146 22.1383 18.1501C22.1383 18.9857 21.8493 19.6926 21.2713 20.2706C20.6931 20.8484 19.9863 21.1373 19.1508 21.1373ZM4.85078 7.1998C5.23411 7.1998 5.55495 7.07064 5.81328 6.8123C6.07161 6.55397 6.20078 6.23314 6.20078 5.8498C6.20078 5.46647 6.07161 5.14564 5.81328 4.8873C5.55495 4.62897 5.23411 4.4998 4.85078 4.4998C4.46745 4.4998 4.14661 4.62897 3.88828 4.8873C3.62995 5.14564 3.50078 5.46647 3.50078 5.8498C3.50078 6.23314 3.62995 6.55397 3.88828 6.8123C4.14661 7.07064 4.46745 7.1998 4.85078 7.1998Z" fill="black"/>
</svg>
