<svg width="24" height="24" viewBox="0 0 24 24" fill="none" xmlns="http://www.w3.org/2000/svg">
<path d="M4.55286 21.1497C4.09286 21.1497 3.69403 20.9808 3.35636 20.643C3.01853 20.3053 2.84961 19.9065 2.84961 19.4465V4.55398C2.84961 4.09231 3.01853 3.69206 3.35636 3.35323C3.69403 3.01423 4.09286 2.84473 4.55286 2.84473H11.1584C11.3987 2.84473 11.6007 2.92814 11.7644 3.09498C11.928 3.26198 12.0099 3.46606 12.0099 3.70723C12.0099 3.94856 11.928 4.15006 11.7644 4.31173C11.6007 4.47323 11.3987 4.55398 11.1584 4.55398H4.55286V19.4465H11.1584C11.3987 19.4465 11.6007 19.5287 11.7644 19.6932C11.928 19.8577 12.0099 20.0608 12.0099 20.3025C12.0099 20.5441 11.928 20.7457 11.7644 20.9072C11.6007 21.0689 11.3987 21.1497 11.1584 21.1497H4.55286ZM17.8909 12.852H9.81486C9.57453 12.852 9.37253 12.7696 9.20886 12.605C9.04519 12.4405 8.96336 12.2374 8.96336 11.9957C8.96336 11.7542 9.04519 11.5526 9.20886 11.391C9.37253 11.2293 9.57453 11.1485 9.81486 11.1485H17.8409L15.9176 9.22523C15.7476 9.05439 15.6668 8.85431 15.6751 8.62498C15.6834 8.39548 15.7726 8.19673 15.9426 8.02873C16.1124 7.85689 16.3149 7.77198 16.5499 7.77398C16.7847 7.77598 16.9884 7.86189 17.1611 8.03173L20.5579 11.4285C20.7237 11.5998 20.8066 11.7991 20.8066 12.0262C20.8066 12.2534 20.7237 12.452 20.5579 12.622L17.1861 15.9937C17.0194 16.1636 16.8214 16.2453 16.5919 16.239C16.3622 16.2326 16.1592 16.1446 15.9829 15.9747C15.8194 15.8047 15.7365 15.6019 15.7344 15.3662C15.7322 15.1304 15.8183 14.9271 15.9926 14.7562L17.8909 12.852Z" fill="black"/>
</svg>
