<svg width="16" height="16" viewBox="0 0 16 16" fill="none" xmlns="http://www.w3.org/2000/svg">
<path fill-rule="evenodd" clip-rule="evenodd" d="M13.82 4.74634L13.7267 4.57967C13.6063 4.37813 13.4365 4.21063 13.2333 4.09301L8.76 1.51301C8.55746 1.39551 8.32753 1.33342 8.09333 1.33301H7.9C7.6658 1.33342 7.43587 1.39551 7.23333 1.51301L2.76 4.09967C2.55798 4.21651 2.39017 4.38432 2.27333 4.58634L2.18 4.75301C2.0625 4.95557 2.00041 5.1855 2 5.41967V10.5863C2.00041 10.8205 2.0625 11.0505 2.18 11.253L2.27333 11.4197C2.39319 11.6193 2.56033 11.7865 2.76 11.9063L7.24 14.4863C7.44153 14.6063 7.67213 14.6685 7.90666 14.6663H8.09333C8.32753 14.6659 8.55746 14.6039 8.76 14.4863L13.2333 11.8997C13.4373 11.7855 13.6058 11.617 13.72 11.413L13.82 11.2463C13.9361 11.0432 13.9981 10.8137 14 10.5797V5.41301C13.9996 5.17883 13.9375 4.9489 13.82 4.74634ZM7.9 2.66634H8.09333L12 4.91967L8 7.22634L4 4.91967L7.9 2.66634ZM8.66666 12.9997L12.5667 10.7463L12.6667 10.5797V6.07301L8.66666 8.38634V12.9997Z" fill="black"/>
</svg>
