<svg width="24" height="24" viewBox="0 0 24 24" fill="none" xmlns="http://www.w3.org/2000/svg">
<path d="M8.85536 16.286C8.17503 16.286 7.60153 16.0511 7.13486 15.5815C6.66819 15.1118 6.43486 14.5368 6.43486 13.8565C6.43486 13.1761 6.66978 12.6026 7.13961 12.136C7.60928 11.6693 8.18428 11.436 8.86461 11.436C9.54478 11.436 10.1182 11.6709 10.5849 12.1407C11.0515 12.6104 11.2849 13.1854 11.2849 13.8657C11.2849 14.5459 11.05 15.1193 10.5804 15.586C10.1107 16.0526 9.53569 16.286 8.85536 16.286ZM4.55286 22.1497C4.09286 22.1497 3.69403 21.9808 3.35636 21.643C3.01853 21.3053 2.84961 20.9065 2.84961 20.4465V5.05398C2.84961 4.59231 3.01853 4.19206 3.35636 3.85323C3.69403 3.51423 4.09286 3.34473 4.55286 3.34473H6.12411V2.69848C6.12411 2.45931 6.20711 2.25723 6.37311 2.09223C6.53928 1.92723 6.74128 1.84473 6.97911 1.84473C7.22394 1.84473 7.43044 1.92723 7.59861 2.09223C7.76678 2.25723 7.85086 2.45931 7.85086 2.69848V3.34473H16.1474V2.69848C16.1474 2.45931 16.2304 2.25723 16.3966 2.09223C16.5626 1.92723 16.7645 1.84473 17.0024 1.84473C17.2474 1.84473 17.4539 1.92723 17.6219 2.09223C17.79 2.25723 17.8741 2.45931 17.8741 2.69848V3.34473H19.4454C19.907 3.34473 20.3073 3.51423 20.6461 3.85323C20.9851 4.19206 21.1546 4.59231 21.1546 5.05398V20.4465C21.1546 20.9065 20.9851 21.3053 20.6461 21.643C20.3073 21.9808 19.907 22.1497 19.4454 22.1497H4.55286ZM4.55286 20.4465H19.4454V9.75023H4.55286V20.4465ZM4.55286 8.25023H19.4454V5.05398H4.55286V8.25023Z" fill="black"/>
</svg>
